<svg xmlns="http://www.w3.org/2000/svg" width="109.343" height="106.603"><path d="M0 0v106.6h109.343V0zm4.556 4.556h100.231v97.493H4.556zm33.371 55.813l-3.612 13.65c-.073.392-.216.462-.659.462h-6.694c-.462 0-.532-.143-.462-.659l12.936-45.311a13.818 13.818 0 00.443-3.809c0-.3.161-.443.392-.443h9.54c.3 0 .462.073.532.443L64.85 73.895c.088.374 0 .586-.374.586h-7.511c-.392 0-.6-.088-.677-.392l-3.773-13.723H37.906zm12.708-7.4c-1.282-5.036-4.289-16.07-5.409-21.41h-.088c-.96 5.321-3.384 14.345-5.248 21.41zm20.5-25.322a4.665 4.665 0 119.331 0c0 3.007-1.959 4.665-4.753 4.665a4.281 4.281 0 01-4.592-4.665zm.516 10.357c0-.355.143-.5.516-.5h7.156c.41 0 .55.143.55.532v35.965c0 .374-.073.516-.532.516h-7.05c-.462 0-.6-.216-.6-.586V37.994z"/></svg>