<svg xmlns="http://www.w3.org/2000/svg" width="109.343" height="106.609"><path d="M89.98 0H19.363A19.347 19.347 0 000 19.363V87.25a19.347 19.347 0 0019.363 19.363H89.98a19.347 19.347 0 0019.363-19.363V19.363A19.347 19.347 0 0089.98 0zm14.761 85.47a16.5 16.5 0 01-16.492 16.58H21.094A16.566 16.566 0 014.556 85.515V21.094A16.566 16.566 0 0121.094 4.556H88.2a16.538 16.538 0 0116.538 16.538zM43.236 49.888l12.757 24.511c.228.364.091.729-.273.729h-7.928a.894.894 0 01-.957-.592c-2.916-6.014-5.877-12.028-8.93-18.5h-.091a696.637 696.637 0 01-8.656 18.543.875.875 0 01-.82.5h-7.517c-.456 0-.5-.364-.273-.638l12.483-23.779-12.074-24.055a.368.368 0 01.273-.638h7.836a.717.717 0 01.82.5c2.87 6.014 5.786 12.21 8.52 18.269h.094c2.642-6.014 5.558-12.256 8.383-18.224.228-.364.364-.592.82-.592h7.335c.364 0 .5.273.273.638zm14.989 7.426c0-10.615 7.062-18.907 18.269-18.907a20.2 20.2 0 012.369.091V26.425a.457.457 0 01.456-.456h7.2c.364 0 .456.137.456.364v41.824a32.451 32.451 0 00.228 4.465c0 .273-.091.364-.364.5a27.138 27.138 0 01-11.663 2.642c-9.889.047-16.951-6.058-16.951-18.45zM78.864 45.65a6.89 6.89 0 00-2.642-.456c-5.741 0-9.75 4.419-9.75 11.754 0 8.383 4.1 11.754 9.249 11.754a8.6 8.6 0 003.144-.5V45.65z"/></svg>