<svg xmlns="http://www.w3.org/2000/svg" width="109.343" height="106.609" viewBox="0 0 109.343 106.609">
  <path id="adobe_xd" d="M89.98.45H19.363A19.347,19.347,0,0,0,0,19.813V87.7a19.347,19.347,0,0,0,19.363,19.363H89.98A19.347,19.347,0,0,0,109.343,87.7V19.813A19.347,19.347,0,0,0,89.98.45Zm14.761,85.47A16.5,16.5,0,0,1,88.249,102.5H21.094A16.566,16.566,0,0,1,4.556,85.965V21.544A16.566,16.566,0,0,1,21.094,5.006H88.2a16.538,16.538,0,0,1,16.538,16.538ZM43.236,50.338,55.993,74.849c.228.364.091.729-.273.729H47.792a.894.894,0,0,1-.957-.592c-2.916-6.014-5.877-12.028-8.93-18.5h-.091c-2.734,6.1-5.741,12.529-8.656,18.543a.875.875,0,0,1-.82.5H20.821c-.456,0-.5-.364-.273-.638L33.031,51.112,20.957,27.057a.368.368,0,0,1,.273-.638h7.836a.717.717,0,0,1,.82.5c2.87,6.014,5.786,12.21,8.52,18.269H38.5c2.642-6.014,5.558-12.256,8.383-18.224.228-.364.364-.592.82-.592h7.335c.364,0,.5.273.273.638Zm14.989,7.426c0-10.615,7.062-18.907,18.269-18.907a20.2,20.2,0,0,1,2.369.091V26.875a.457.457,0,0,1,.456-.456h7.2c.364,0,.456.137.456.364V68.607a32.451,32.451,0,0,0,.228,4.465c0,.273-.091.364-.364.5a27.138,27.138,0,0,1-11.663,2.642C65.287,76.261,58.225,70.156,58.225,57.764ZM78.864,46.1a6.89,6.89,0,0,0-2.642-.456c-5.741,0-9.75,4.419-9.75,11.754,0,8.383,4.1,11.754,9.249,11.754a8.6,8.6,0,0,0,3.144-.5V46.1Z" transform="translate(0 -0.45)"/>
</svg>
