<svg xmlns="http://www.w3.org/2000/svg" width="109.343" height="106.603" viewBox="0 0 109.343 106.603">
  <path id="adobe_illustrator" d="M0,.451v106.6H109.343V.451ZM4.556,5.007H104.787V102.5H4.556ZM37.927,60.82,34.315,74.47c-.073.392-.216.462-.659.462H26.962c-.462,0-.532-.143-.462-.659L39.436,28.962a13.818,13.818,0,0,0,.443-3.809c0-.3.161-.443.392-.443h9.54c.3,0,.462.073.532.443L64.85,74.346c.088.374,0,.586-.374.586H56.965c-.392,0-.6-.088-.677-.392L52.515,60.817H37.906Zm12.708-7.4c-1.282-5.036-4.289-16.07-5.409-21.41h-.088c-.96,5.321-3.384,14.345-5.248,21.41Zm20.5-25.322a4.665,4.665,0,1,1,9.331,0c0,3.007-1.959,4.665-4.753,4.665a4.281,4.281,0,0,1-4.592-4.665Zm.516,10.357c0-.355.143-.5.516-.5h7.156c.41,0,.55.143.55.532V74.452c0,.374-.073.516-.532.516h-7.05c-.462,0-.6-.216-.6-.586V38.445Z" transform="translate(0 -0.451)"/>
</svg>
