<svg xmlns="http://www.w3.org/2000/svg" width="109.343" height="106.609"><path d="M26.88 26.698c0-.273.091-.5.456-.5 2.87-.137 6.971-.228 11.39-.228 12.3 0 17.677 6.743 17.677 15.4 0 11.3-8.292 16.128-18.315 16.128-1.686 0-2.278-.091-3.463-.091v17.311c0 .364-.137.5-.5.5h-6.744c-.364 0-.5-.137-.5-.5zm7.745 23.6c1 .091 1.822.091 3.6.091 5.194 0 10.16-1.822 10.16-8.884 0-5.649-3.554-8.52-9.522-8.52-1.777 0-3.463.091-4.237.137zm39.728-5.285c-3.508 0-4.693 1.777-4.693 3.235 0 1.595.82 2.734 5.513 5.148 6.971 3.371 9.157 6.606 9.157 11.39 0 7.107-5.422 10.934-12.757 10.934a20.176 20.176 0 01-9.249-1.913.7.7 0 01-.364-.729v-6.561c0-.456.228-.592.5-.364a17.1 17.1 0 009.112 2.642c3.508 0 4.966-1.458 4.966-3.463 0-1.595-1-3.007-5.513-5.376C64.695 56.95 62.1 53.85 62.1 48.75c0-5.741 4.465-10.479 12.256-10.479a21.988 21.988 0 018.11 1.23.984.984 0 01.456.866v6.1a.438.438 0 01-.638.456 16.577 16.577 0 00-7.927-1.914zM19.363 0A19.347 19.347 0 000 19.363V87.25a19.347 19.347 0 0019.363 19.363H89.98a19.347 19.347 0 0019.363-19.363V19.363A19.347 19.347 0 0089.98 0zm1.731 4.556H88.2a16.538 16.538 0 0116.538 16.538V85.47a16.511 16.511 0 01-16.489 16.58H21.094A16.566 16.566 0 014.556 85.515V21.094A16.566 16.566 0 0121.094 4.556z"/></svg>