<svg xmlns="http://www.w3.org/2000/svg" width="109.343" height="106.609" viewBox="0 0 109.343 106.609">
  <path id="adobe_photoshop" d="M26.88,27.148c0-.273.091-.5.456-.5,2.87-.137,6.971-.228,11.39-.228,12.3,0,17.677,6.743,17.677,15.4,0,11.3-8.292,16.128-18.315,16.128-1.686,0-2.278-.091-3.463-.091V75.168c0,.364-.137.5-.5.5H27.381c-.364,0-.5-.137-.5-.5Zm7.745,23.6c1,.091,1.822.091,3.6.091,5.194,0,10.16-1.822,10.16-8.884,0-5.649-3.554-8.52-9.522-8.52-1.777,0-3.463.091-4.237.137Zm39.728-5.285c-3.508,0-4.693,1.777-4.693,3.235,0,1.595.82,2.734,5.513,5.148,6.971,3.371,9.157,6.606,9.157,11.39,0,7.107-5.422,10.934-12.757,10.934a20.176,20.176,0,0,1-9.249-1.913.7.7,0,0,1-.364-.729V66.967c0-.456.228-.592.5-.364a17.1,17.1,0,0,0,9.112,2.642c3.508,0,4.966-1.458,4.966-3.463,0-1.595-1-3.007-5.513-5.376C64.695,57.4,62.1,54.3,62.1,49.2c0-5.741,4.465-10.479,12.256-10.479a21.988,21.988,0,0,1,8.11,1.23.984.984,0,0,1,.456.866v6.1a.438.438,0,0,1-.638.456,16.577,16.577,0,0,0-7.927-1.914ZM19.363.45A19.347,19.347,0,0,0,0,19.813V87.7a19.347,19.347,0,0,0,19.363,19.363H89.98A19.347,19.347,0,0,0,109.343,87.7V19.813A19.347,19.347,0,0,0,89.98.45Zm1.731,4.556H88.2a16.538,16.538,0,0,1,16.538,16.538V85.92A16.511,16.511,0,0,1,88.249,102.5H21.094A16.566,16.566,0,0,1,4.556,85.965V21.544A16.566,16.566,0,0,1,21.094,5.006Z" transform="translate(0 -0.45)"/>
</svg>
