<svg xmlns="http://www.w3.org/2000/svg" width="109.346" height="78.59"><path data-name="パス 7" d="M108.277 29.717c-.3-.255-3.043-2.336-8.924-2.336a28.154 28.154 0 00-4.614.407c-1.115-7.772-7.557-11.533-7.809-11.736l-1.573-.914-1.014 1.473a21.625 21.625 0 00-2.788 6.5 15.446 15.446 0 001.825 12.14c-2.688 1.525-7.05 1.88-7.961 1.932H3.405a3.4 3.4 0 00-3.4 3.4 51.511 51.511 0 003.145 18.55c2.485 6.5 6.187 11.329 10.953 14.275 5.379 3.3 14.151 5.182 24.04 5.182a73.751 73.751 0 0013.337-1.218 55.027 55.027 0 0017.446-6.348 47.7 47.7 0 0011.867-9.753c5.728-6.451 9.127-13.665 11.615-20.067h1.014c6.239 0 10.093-2.491 12.222-4.623a13.54 13.54 0 003.247-4.775l.456-1.321-1.069-.765z"/><path data-name="パス 8" d="M10.096 35.102h9.634a.856.856 0 00.863-.863v-8.634a.856.856 0 00-.863-.863h-9.634a.856.856 0 00-.863.863v8.635a.89.89 0 00.863.863"/><path data-name="パス 9" d="M23.385 35.102h9.634a.856.856 0 00.863-.863v-8.634a.856.856 0 00-.863-.863h-9.634a.856.856 0 00-.863.863v8.635a.89.89 0 00.863.863"/><path data-name="パス 10" d="M36.925 35.102h9.634a.856.856 0 00.863-.863v-8.634a.856.856 0 00-.863-.863h-9.634a.856.856 0 00-.863.863v8.635a.828.828 0 00.863.863"/><path data-name="パス 11" d="M50.265 35.102h9.634a.856.856 0 00.863-.863v-8.634a.856.856 0 00-.863-.863h-9.634a.856.856 0 00-.863.863v8.635a.856.856 0 00.863.863"/><path data-name="パス 12" d="M23.385 22.758h9.634a.891.891 0 00.863-.863v-8.634a.856.856 0 00-.863-.863h-9.634a.856.856 0 00-.863.863v8.635a.93.93 0 00.863.863"/><path data-name="パス 13" d="M36.925 22.758h9.634a.891.891 0 00.863-.863v-8.634a.856.856 0 00-.863-.863h-9.634a.856.856 0 00-.863.863v8.635a.858.858 0 00.863.863"/><path data-name="パス 14" d="M50.265 22.758h9.634a.891.891 0 00.863-.863v-8.634a.891.891 0 00-.863-.863h-9.634a.856.856 0 00-.863.863v8.635a.891.891 0 00.863.863"/><path data-name="パス 15" d="M50.265 10.363h9.634a.856.856 0 00.863-.863V.863A.891.891 0 0059.899 0h-9.634a.856.856 0 00-.863.863v8.635a.893.893 0 00.863.866"/><path data-name="パス 16" d="M63.702 35.102h9.634a.856.856 0 00.863-.863v-8.634a.856.856 0 00-.863-.863h-9.634a.856.856 0 00-.863.863v8.635a.89.89 0 00.863.863"/></svg>