<svg id="docker" xmlns="http://www.w3.org/2000/svg" width="109.346" height="78.59" viewBox="0 0 109.346 78.59">
  <path id="パス_7" data-name="パス 7" d="M108.277,24.626c-.3-.255-3.043-2.336-8.924-2.336a28.154,28.154,0,0,0-4.614.407c-1.115-7.772-7.557-11.533-7.809-11.736l-1.573-.914L84.343,11.52a21.625,21.625,0,0,0-2.788,6.5,15.446,15.446,0,0,0,1.825,12.14c-2.688,1.525-7.05,1.88-7.961,1.932H3.405a3.4,3.4,0,0,0-3.4,3.4A51.511,51.511,0,0,0,3.15,54.042c2.485,6.5,6.187,11.329,10.953,14.275,5.379,3.3,14.151,5.182,24.04,5.182A73.751,73.751,0,0,0,51.48,72.281a55.027,55.027,0,0,0,17.446-6.348,47.7,47.7,0,0,0,11.867-9.753c5.728-6.451,9.127-13.665,11.615-20.067h1.014c6.239,0,10.093-2.491,12.222-4.623a13.54,13.54,0,0,0,3.247-4.775l.456-1.321-1.069-.765Z" transform="translate(0 5.091)"/>
  <path id="パス_8" data-name="パス 8" d="M3.9,23.569h9.634a.856.856,0,0,0,.863-.863V14.072a.856.856,0,0,0-.863-.863H3.9a.856.856,0,0,0-.863.863v8.635a.89.89,0,0,0,.863.863" transform="translate(6.196 11.533)"/>
  <path id="パス_9" data-name="パス 9" d="M8.278,23.569h9.634a.856.856,0,0,0,.863-.863V14.072a.856.856,0,0,0-.863-.863H8.278a.856.856,0,0,0-.863.863v8.635a.89.89,0,0,0,.863.863" transform="translate(15.107 11.533)"/>
  <path id="パス_10" data-name="パス 10" d="M12.736,23.569H22.37a.856.856,0,0,0,.863-.863V14.072a.856.856,0,0,0-.863-.863H12.736a.856.856,0,0,0-.863.863v8.635a.828.828,0,0,0,.863.863" transform="translate(24.189 11.533)"/>
  <path id="パス_11" data-name="パス 11" d="M17.128,23.569h9.634a.856.856,0,0,0,.863-.863V14.072a.856.856,0,0,0-.863-.863H17.128a.856.856,0,0,0-.863.863v8.635a.856.856,0,0,0,.863.863" transform="translate(33.137 11.533)"/>
  <path id="パス_12" data-name="パス 12" d="M8.278,19.505h9.634a.891.891,0,0,0,.863-.863V10.008a.856.856,0,0,0-.863-.863H8.278a.856.856,0,0,0-.863.863v8.635a.93.93,0,0,0,.863.863" transform="translate(15.107 3.253)"/>
  <path id="パス_13" data-name="パス 13" d="M12.736,19.505H22.37a.891.891,0,0,0,.863-.863V10.008a.856.856,0,0,0-.863-.863H12.736a.856.856,0,0,0-.863.863v8.635a.858.858,0,0,0,.863.863" transform="translate(24.189 3.253)"/>
  <path id="パス_14" data-name="パス 14" d="M17.128,19.505h9.634a.891.891,0,0,0,.863-.863V10.008a.891.891,0,0,0-.863-.863H17.128a.856.856,0,0,0-.863.863v8.635a.891.891,0,0,0,.863.863" transform="translate(33.137 3.253)"/>
  <path id="パス_15" data-name="パス 15" d="M17.128,15.426h9.634a.856.856,0,0,0,.863-.863V5.926a.891.891,0,0,0-.863-.863H17.128a.856.856,0,0,0-.863.863v8.635a.893.893,0,0,0,.863.866" transform="translate(33.137 -5.063)"/>
  <path id="パス_16" data-name="パス 16" d="M21.552,23.569h9.634a.856.856,0,0,0,.863-.863V14.072a.856.856,0,0,0-.863-.863H21.552a.856.856,0,0,0-.863.863v8.635a.89.89,0,0,0,.863.863" transform="translate(42.15 11.533)"/>
</svg>
