<svg xmlns="http://www.w3.org/2000/svg" width="109.367" height="109.358"><path d="M109.367 8.48V3.657a3.69 3.69 0 01-2.588-1.075 3.69 3.69 0 01-1.066-2.58h-4.832a3.672 3.672 0 01-3.663 3.414A3.672 3.672 0 0193.555.002H88.72a3.669 3.669 0 01-3.663 3.458A3.669 3.669 0 0181.394.002H76.57a3.678 3.678 0 01-3.851 3.484A3.681 3.681 0 0169.235.002h-4.83a3.672 3.672 0 01-3.665 3.436A3.672 3.672 0 0157.077.002h-4.823a3.669 3.669 0 01-3.663 3.458A3.669 3.669 0 0144.928.002h-4.829a3.624 3.624 0 01-1.145 2.55 3.624 3.624 0 01-2.619.977A3.663 3.663 0 0132.8.002h-4.829a3.672 3.672 0 01-3.666 3.412 3.672 3.672 0 01-3.66-3.412h-4.83a3.66 3.66 0 01-3.66 3.66 3.66 3.66 0 01-3.66-3.66H3.66A3.678 3.678 0 01.005 3.66v4.82a3.663 3.663 0 013.514 3.66A3.663 3.663 0 010 15.802v4.83a3.66 3.66 0 013.66 3.66A3.66 3.66 0 010 27.952v4.823a3.669 3.669 0 013.486 3.665 3.669 3.669 0 01-3.481 3.662v4.823a3.663 3.663 0 013.663 3.663A3.663 3.663 0 010 52.254v4.829a3.66 3.66 0 013.66 3.66A3.66 3.66 0 010 64.402v4.832a3.663 3.663 0 013.663 3.668A3.663 3.663 0 010 76.561v4.832a3.654 3.654 0 013.526 3.781 3.651 3.651 0 01-3.521 3.534v4.832a3.663 3.663 0 013.658 3.662A3.663 3.663 0 010 100.865v4.837a3.672 3.672 0 013.66 3.66h4.829a3.672 3.672 0 017.326 0h4.832a3.672 3.672 0 017.326 0h4.823a3.678 3.678 0 017.329 0h4.83a3.663 3.663 0 017.32 0h4.83a3.672 3.672 0 017.326 0h4.832a3.678 3.678 0 017.335 0h4.823a3.678 3.678 0 017.335 0h4.829a3.663 3.663 0 017.317 0h4.808a3.645 3.645 0 013.651-3.654v-4.836a3.669 3.669 0 010-7.317v-4.832a3.672 3.672 0 010-7.326v-4.833a3.672 3.672 0 010-7.326v-4.836a3.663 3.663 0 110-7.326v-4.82a3.672 3.672 0 010-7.326v-4.828a3.663 3.663 0 110-7.326v-4.827a3.672 3.672 0 010-7.32v-4.827a3.672 3.672 0 010-7.326zM90.834 53.302L61.657 81.667a50.964 50.964 0 007.936 1.027 55.548 55.548 0 0019.533-4.173l-2.66 12.51c-7.636 3.671-12.304 3.971-16.869 3.971-4.99 0-9.768-1.625-14.646-1.625-2.746 0-6.715.207-9.151 1.822l-5.295-9.359 30.1-29.8H35.968l-6.612 31.015H14.913l15.059-70.982h47.792l-3.052 14.329H41.456l-2.851 13.329h54.567l-2.341 9.571z"/></svg>