<svg xmlns="http://www.w3.org/2000/svg" width="109.342" height="109.348" viewBox="0 0 109.342 109.348">
  <path id="git" d="M107.275,49.8,59.534,2.059a7.062,7.062,0,0,0-9.968,0l-9.893,9.908L52.248,24.541a8.374,8.374,0,0,1,10.6,10.667l12.11,12.119a8.372,8.372,0,1,1-5.03,4.753L58.59,40.8V70.529a8.4,8.4,0,1,1-9.662,1.595,8.609,8.609,0,0,1,2.755-1.85V40.253a8.356,8.356,0,0,1-4.538-10.98L34.789,16.857,2.05,49.575a7.091,7.091,0,0,0,0,9.975L49.8,107.284a7.037,7.037,0,0,0,9.959,0l47.519-47.519a7.034,7.034,0,0,0,0-9.962"/>
</svg>
