<svg xmlns="http://www.w3.org/2000/svg" width="109.343" height="106.671" viewBox="0 0 109.343 106.671">
  <path id="github" d="M54.671,0A53.484,53.484,0,0,1,82.114,7.332a54.419,54.419,0,0,1,19.9,19.9,53.485,53.485,0,0,1,7.332,27.442,53.134,53.134,0,0,1-10.43,32.141,53.563,53.563,0,0,1-26.944,19.755,3.191,3.191,0,0,1-2.849-.5,2.782,2.782,0,0,1-.926-2.135q0-.213.036-5.446t.036-9.574q0-6.9-3.7-10.108a48.878,48.878,0,0,0,7.3-1.282,29.06,29.06,0,0,0,6.691-2.776,19.868,19.868,0,0,0,5.765-4.735,22.084,22.084,0,0,0,3.772-7.475,35.905,35.905,0,0,0,1.464-10.713,21.085,21.085,0,0,0-5.625-14.664q2.633-6.479-.571-14.521-1.992-.641-5.765.784a38.455,38.455,0,0,0-6.548,3.131l-2.706,1.71a51.422,51.422,0,0,0-27.336,0q-1.139-.784-3.025-1.923A42.818,42.818,0,0,0,32.034,23.6q-4.055-1.6-6.05-.963-3.2,8.043-.571,14.521a21.085,21.085,0,0,0-5.625,14.664A35.581,35.581,0,0,0,21.246,62.5a22.805,22.805,0,0,0,3.742,7.475,19.292,19.292,0,0,0,5.731,4.769,28.913,28.913,0,0,0,6.691,2.776,49.066,49.066,0,0,0,7.3,1.282,12.02,12.02,0,0,0-3.487,7.332,14.224,14.224,0,0,1-3.2,1.069,19.9,19.9,0,0,1-4.058.355,8.418,8.418,0,0,1-4.662-1.531,12.513,12.513,0,0,1-3.952-4.45,11.475,11.475,0,0,0-3.453-3.7,10.423,10.423,0,0,0-3.523-1.71l-1.424-.213a4.646,4.646,0,0,0-2.065.319q-.571.319-.355.82a3.922,3.922,0,0,0,.641,1,5.238,5.238,0,0,0,.926.853l.5.355A8.575,8.575,0,0,1,19.685,82a17.848,17.848,0,0,1,2.242,3.63l.711,1.637a9.021,9.021,0,0,0,3.131,4.377,11.1,11.1,0,0,0,4.769,2.135,30.106,30.106,0,0,0,4.948.5,21.209,21.209,0,0,0,3.952-.249l1.637-.286q0,2.706.036,6.3t.036,3.879a2.782,2.782,0,0,1-.926,2.135,3.191,3.191,0,0,1-2.849.5A53.546,53.546,0,0,1,10.427,86.8,53.131,53.131,0,0,1,0,54.672,53.484,53.484,0,0,1,7.332,27.229a54.419,54.419,0,0,1,19.9-19.9A53.484,53.484,0,0,1,54.671,0ZM20.714,78.52q.213-.5-.5-.853-.711-.213-.926.143-.213.5.5.853Q20.429,79.091,20.714,78.52Zm2.208,2.421q.5-.355-.143-1.139-.711-.641-1.139-.213-.5.355.143,1.139Q22.494,81.439,22.923,80.941Zm2.135,3.2q.641-.5,0-1.352-.571-.926-1.209-.428-.641.355,0,1.282T25.058,84.146Zm2.989,2.989q.571-.571-.286-1.352-.853-.854-1.424-.213-.641.571.286,1.352Q27.475,87.775,28.046,87.134Zm4.058,1.78q.213-.784-.926-1.139-1.069-.286-1.352.5t.926,1.069q1.069.428,1.352-.428Zm4.486.355q0-.926-1.209-.784-1.139,0-1.139.784,0,.926,1.209.784Q36.59,90.053,36.59,89.269Zm4.128-.711q-.143-.784-1.282-.641-1.139.213-1,1.069t1.282.571q1.139-.286,1-1Z"/>
</svg>
