<svg xmlns="http://www.w3.org/2000/svg" width="109.343" height="106.671"><path d="M54.671 0a53.484 53.484 0 0127.443 7.332 54.419 54.419 0 0119.9 19.9 53.485 53.485 0 017.332 27.442 53.134 53.134 0 01-10.43 32.141 53.563 53.563 0 01-26.944 19.755 3.191 3.191 0 01-2.849-.5 2.782 2.782 0 01-.926-2.135q0-.213.036-5.446t.036-9.574q0-6.9-3.7-10.108a48.878 48.878 0 007.3-1.282 29.06 29.06 0 006.691-2.776 19.868 19.868 0 005.765-4.735 22.084 22.084 0 003.772-7.475 35.905 35.905 0 001.464-10.713 21.085 21.085 0 00-5.625-14.664q2.633-6.479-.571-14.521-1.992-.641-5.765.784a38.455 38.455 0 00-6.548 3.131l-2.706 1.71a51.422 51.422 0 00-27.336 0q-1.139-.784-3.025-1.923a42.818 42.818 0 00-5.951-2.743q-4.055-1.6-6.05-.963-3.2 8.043-.571 14.521a21.085 21.085 0 00-5.625 14.664A35.581 35.581 0 0021.246 62.5a22.805 22.805 0 003.742 7.475 19.292 19.292 0 005.731 4.769 28.913 28.913 0 006.691 2.776 49.066 49.066 0 007.3 1.282 12.02 12.02 0 00-3.487 7.332 14.224 14.224 0 01-3.2 1.069 19.9 19.9 0 01-4.058.355 8.418 8.418 0 01-4.662-1.531 12.513 12.513 0 01-3.952-4.45 11.475 11.475 0 00-3.453-3.7 10.423 10.423 0 00-3.523-1.71l-1.424-.213a4.646 4.646 0 00-2.065.319q-.571.319-.355.82a3.922 3.922 0 00.641 1 5.238 5.238 0 00.926.853l.5.355A8.575 8.575 0 0119.685 82a17.848 17.848 0 012.242 3.63l.711 1.637a9.021 9.021 0 003.131 4.377 11.1 11.1 0 004.769 2.135 30.106 30.106 0 004.948.5 21.209 21.209 0 003.952-.249l1.637-.286q0 2.706.036 6.3t.036 3.879a2.782 2.782 0 01-.926 2.135 3.191 3.191 0 01-2.849.5A53.546 53.546 0 0110.427 86.8 53.131 53.131 0 010 54.672a53.484 53.484 0 017.332-27.443 54.419 54.419 0 0119.9-19.9A53.484 53.484 0 0154.671 0zM20.714 78.52q.213-.5-.5-.853-.711-.213-.926.143-.213.5.5.853.641.428.926-.143zm2.208 2.421q.5-.355-.143-1.139-.711-.641-1.139-.213-.5.355.143 1.139.711.711 1.14.213zm2.135 3.2q.641-.5 0-1.352-.571-.926-1.209-.428-.641.355 0 1.282t1.21.503zm2.989 2.989q.571-.571-.286-1.352-.853-.854-1.424-.213-.641.571.286 1.352.853.858 1.424.217zm4.058 1.78q.213-.784-.926-1.139-1.069-.286-1.352.5t.926 1.069q1.069.428 1.352-.428zm4.486.355q0-.926-1.209-.784-1.139 0-1.139.784 0 .926 1.209.784 1.139.004 1.139-.78zm4.128-.711q-.143-.784-1.282-.641-1.139.213-1 1.069t1.282.571q1.139-.286 1-1z"/></svg>