<svg xmlns="http://www.w3.org/2000/svg" width="109.405" height="100.681" viewBox="0 0 109.405 100.681">
  <path id="gitlab" d="M6.365,38.885l48.327,61.934L1.727,62.378A4.076,4.076,0,0,1,.2,60.274a4.062,4.062,0,0,1,0-2.594Zm28.189,0H74.826L54.692,100.819ZM22.475,1.544,34.558,38.888H6.365L18.448,1.544a1.945,1.945,0,0,1,2.014-1.4A1.945,1.945,0,0,1,22.475,1.544Zm80.543,37.344,6.163,18.795a4.035,4.035,0,0,1,0,2.594,4.1,4.1,0,0,1-1.525,2.1l-52.965,38.44,48.327-61.934Zm0,0H74.829L86.912,1.544a2.147,2.147,0,0,1,4.027,0Z" transform="translate(0.01 -0.141)"/>
</svg>
