<svg xmlns="http://www.w3.org/2000/svg" width="76.06" height="88.1" viewBox="0 0 76.06 88.1">
  <path id="google_analytics" d="M23.457,77.6A10.5,10.5,0,1,1,20.4,70.154,10.5,10.5,0,0,1,23.457,77.6ZM29.991,44.05V76.574c0,7.415,5.1,11.526,10.5,11.526,4.992,0,10.5-3.487,10.5-11.526V44.564c0-6.791-4.992-11.013-10.5-11.013A10.682,10.682,0,0,0,29.991,44.05ZM57.523,10.5V76.574c0,7.415,5.1,11.526,10.5,11.526,4.992,0,10.5-3.487,10.5-11.526V11.013C78.52,4.221,73.528,0,68.021,0A10.682,10.682,0,0,0,57.523,10.5Z" transform="translate(-2.46)"/>
</svg>
