<svg xmlns="http://www.w3.org/2000/svg" width="109.356" height="66.576" viewBox="0 0 109.356 66.576">
  <path id="gulp" d="M27.044,7.041a11.741,11.741,0,0,0-4.614,1.011,20.491,20.491,0,0,0-4.586,2.755,32.5,32.5,0,0,0-4.419,4.179,47.724,47.724,0,0,0-4.043,5.3C8.125,22.2,6.952,24.238,5.829,26.3H5.823v.006a62.928,62.928,0,0,0-2.87,6.63,56.406,56.406,0,0,0-2,6.822,39.46,39.46,0,0,0-.911,6.676A2.345,2.345,0,0,0,0,46.854v.434a24.339,24.339,0,0,0,.34,3.535v.009l.006.009a11.443,11.443,0,0,0,1.412,3.265,7.745,7.745,0,0,0,2.448,2.36,6.434,6.434,0,0,0,3.535.942,9.126,9.126,0,0,0,3.721-.841,24.251,24.251,0,0,0,3.8-2.181A32.763,32.763,0,0,0,18.88,51.38c.942-.875,1.8-1.786,2.655-2.688l-.893,2.77c-.389,1.336-.82,2.624-1.172,3.888-.389,1.248-.693,2.369-.954,3.362a10.2,10.2,0,0,0-.437,2.078v.981a4.084,4.084,0,0,0,.474,2.36,1.813,1.813,0,0,0,1.519.693,1.98,1.98,0,0,0,1.209-.434,5.6,5.6,0,0,0,1-1.021v-.009l.009-.006a12.289,12.289,0,0,0,.747-1.267,11.5,11.5,0,0,0,.489-1.227v-.006l.307-1.093.65-2.254.866-3.016c.346-1.124.647-2.254,1.036-3.4l1.027-3.417c.328-1.112.638-2.12.923-3.013.289-.911.528-1.649.729-2.248.091-.3.182-.528.246-.7l.064-.146.182.082.082-.219c.346-.993.686-1.944,1.036-2.852s.693-1.822.957-2.718a17.139,17.139,0,0,0,1-5.877,2.9,2.9,0,0,0-.228-1.163,2,2,0,0,0-.565-.82,2.272,2.272,0,0,0-.793-.456,2.834,2.834,0,0,0-.866-.137,2.986,2.986,0,0,0-1.722.58A3.807,3.807,0,0,0,27.1,29.9v.006L24.6,37.946a17.813,17.813,0,0,1-1.446,2.339v.006a42.86,42.86,0,0,1-7.791,8.347,16.082,16.082,0,0,1-2.734,1.841,4.845,4.845,0,0,1-2.278.665,2.187,2.187,0,0,1-1.421-.468A2.9,2.9,0,0,1,8,49.421a7.208,7.208,0,0,1-.465-1.765A14.5,14.5,0,0,1,7.4,45.733a26.029,26.029,0,0,1,.9-6.351,50.776,50.776,0,0,1,2.454-7.2,64.769,64.769,0,0,1,3.581-7.159,47.228,47.228,0,0,1,4.219-6.205,24.246,24.246,0,0,1,4.419-4.328,6.956,6.956,0,0,1,4.109-1.649,4.009,4.009,0,0,1,2.266.659,6.205,6.205,0,0,1,1.913,2.26v-.006a17,17,0,0,0,1.756,2.761,2.4,2.4,0,0,0,1.859,1.036,2.324,2.324,0,0,0,1.9-.948,3.853,3.853,0,0,0,.775-2.533,7.709,7.709,0,0,0-.137-1.4,3.964,3.964,0,0,0-.638-1.522,15.072,15.072,0,0,0-4.6-4.665h-.012a10.1,10.1,0,0,0-5.127-1.446Zm49.939,3.894a3.654,3.654,0,0,0-1.868.547H75.11l-.006.006a3.873,3.873,0,0,0-1.449,1.959l-8.6,21.677-1.9,4.759c-.7,1.731-1.346,3.463-2.035,5.23a21.834,21.834,0,0,0-.8,2.512q-.57.51-1.172.981a13.492,13.492,0,0,1-2.682,1.661h-.009a4.759,4.759,0,0,1-2.111.589,1.092,1.092,0,0,1-.784-.243.973.973,0,0,1-.255-.756,11.679,11.679,0,0,1,.383-2.8c.261-1,.6-2.053.99-3.113q.557-1.6,1.248-3.144l1.257-2.934c.392-.911.7-1.74.957-2.433a5.24,5.24,0,0,0,.407-1.719,3.235,3.235,0,0,0-.65-1.989,2.159,2.159,0,0,0-1.777-.866,2.123,2.123,0,0,0-1.722.814,6.9,6.9,0,0,0-1.157,1.914,17.846,17.846,0,0,0-.914,2.448,18.885,18.885,0,0,1-.942,2.436c-.516,1.139-1.121,2.387-1.9,3.763A30.252,30.252,0,0,1,46.914,46.1a15.611,15.611,0,0,1-3.077,2.98,5.74,5.74,0,0,1-3.417,1.172.774.774,0,0,1-.762-.4,2.15,2.15,0,0,1-.237-1.027,12.573,12.573,0,0,1,.51-2.931c.3-1.011.641-2.017,1.03-3.007.389-.957.82-1.932,1.288-2.849s.911-1.783,1.339-2.551v-.006l1.13-2.141a10.3,10.3,0,0,0,.617-1.5l.006-.009v-.006a2.7,2.7,0,0,0,.1-.659,1.907,1.907,0,0,0-.246-.975v-.006l-.006-.006a2.4,2.4,0,0,0-1.528-1.084,2.961,2.961,0,0,0-2.679.468A4.5,4.5,0,0,0,39.524,33.5q-1.976,4.059-3.6,8.277c-.866,2.3-1.473,4.164-1.9,5.6a21.257,21.257,0,0,0-.741,3.189v.006l-.091,1.054v.009a6.745,6.745,0,0,0,.41,2.506v.009a4.92,4.92,0,0,0,1.133,1.625,4.07,4.07,0,0,0,1.64.869,6.43,6.43,0,0,0,1.868.267,11.3,11.3,0,0,0,3.924-.7,12.2,12.2,0,0,0,3.253-1.8,15.49,15.49,0,0,0,2.563-2.5,16.1,16.1,0,0,0,1.367-1.944,16.933,16.933,0,0,0-.355,2.8,4.668,4.668,0,0,0,.92,3.265A3.165,3.165,0,0,0,52.293,57a7.937,7.937,0,0,0,3.162-.775,20.826,20.826,0,0,0,3.508-2.032c.3-.207.58-.425.866-.641l.021.164a4.556,4.556,0,0,0,.683,1.595h.006l.006.009a3.885,3.885,0,0,0,1.324,1.093,4.519,4.519,0,0,0,2.05.416,9.112,9.112,0,0,0,3.587-.8h.009a20.663,20.663,0,0,0,3.669-2.187,40.319,40.319,0,0,0,3.7-3.174l.046-.039c-.21.483-.41.966-.629,1.455-1,2.205-2.014,4.428-3.071,6.7s-2.123,4.529-3.116,6.779l-.006.015-.006.009q-.213.642-.474,1.267a12.817,12.817,0,0,0-.525,1.358v.006a8.85,8.85,0,0,0-.434,1.394,5.448,5.448,0,0,0-.182,1.437,2.391,2.391,0,0,0,.784,2.035,3.053,3.053,0,0,0,1.813.525,3.422,3.422,0,0,0,1.528-.364v-.006h.006a4.328,4.328,0,0,0,1.2-1,6.993,6.993,0,0,0,.9-1.4,17.809,17.809,0,0,0,.7-1.661l.009-.018v-.018a10.415,10.415,0,0,1,.383-1.112l.738-1.986.866-2.333.905-2.378.775-1.98c.219-.565.349-.957.434-1.163v-.006c.085-.173.219-.434.389-.86l.607-1.428.732-1.686.784-1.731.647-1.558.468-1.03.006-.006c.389-.775.857-1.631,1.376-2.579V47.3c.559-.942,1.163-1.847,1.8-2.788v-.006c.693-.911,1.376-1.81,2.111-2.664a23.935,23.935,0,0,1,2.278-2.269A12.06,12.06,0,0,1,91.107,38a5.194,5.194,0,0,1,2.272-.583,1.6,1.6,0,0,1,.811.176.617.617,0,0,1,.191.468,3.169,3.169,0,0,1-.656,1.607v.006a29.094,29.094,0,0,1-1.719,2.363c-.738.866-1.473,1.774-2.29,2.718s-1.6,1.907-2.342,2.861A28.154,28.154,0,0,0,85.5,50.365v.006a6.916,6.916,0,0,0-.932,2.415v.033a.881.881,0,0,1-.018.1.362.362,0,0,0-.027.161v.261A3.32,3.32,0,0,0,85.767,56.1a5.289,5.289,0,0,0,3.463,1,10.547,10.547,0,0,0,4.419-.929,21.485,21.485,0,0,0,4.191-2.533h.006A56.794,56.794,0,0,0,102.36,49.8c1.555-1.482,3.368-3.122,5.394-4.92a3.858,3.858,0,0,0,1.194-1.6,4.768,4.768,0,0,0,.407-1.868,2.9,2.9,0,0,0-.374-1.476,1.267,1.267,0,0,0-1.13-.674,1.68,1.68,0,0,0-.747.2,6.306,6.306,0,0,0-.775.462c-.474.152.079.289.137.492-2.451,2.193-4.574,4.043-6.254,5.494-1.731,1.513-3.183,2.679-4.31,3.59a26.848,26.848,0,0,1-2.615,1.868,3.2,3.2,0,0,1-1.315.535,1.064,1.064,0,0,1-.711-.2.647.647,0,0,1-.2-.492,1,1,0,0,1,.161-.34,7.058,7.058,0,0,1,.535-.693l1.813-2.12c.738-.823,1.476-1.737,2.3-2.734a34.442,34.442,0,0,0,2.287-3.107,19.91,19.91,0,0,0,1.777-3.189,7.65,7.65,0,0,0,.711-3.034,3.815,3.815,0,0,0-.483-1.941A4.191,4.191,0,0,0,98.9,32.685a5.611,5.611,0,0,0-1.71-.823h-.006a7.092,7.092,0,0,0-4.75.331,13.959,13.959,0,0,0-2.724,1.513,25.861,25.861,0,0,0-2.573,2.05q-.889.837-1.731,1.722l.164-.8c.067-.331.115-.641.155-.942v-.006a4.7,4.7,0,0,0,.058-.677,2.412,2.412,0,0,0-.574-1.7v-.006H85.2a2.437,2.437,0,0,0-1.822-.589,2.083,2.083,0,0,0-1.549.866,9.931,9.931,0,0,0-1.2,1.9,19.248,19.248,0,0,0-.92,2.187L79.1,39.437v.006c-.21.723-.443,1.464-.683,2.211a1.887,1.887,0,0,0-.8.471l.015-.015c-.538.519-1.145,1.124-1.819,1.774s-1.382,1.294-2.114,1.941c-.738.607-1.485,1.254-2.232,1.853S70,48.792,69.314,49.247a14.35,14.35,0,0,1-1.907,1.1,3.535,3.535,0,0,1-1.409.4c-.273,0-.389-.064-.456-.191h-.006a1.418,1.418,0,0,1-.146-.7,6.252,6.252,0,0,1,.292-1.777c.191-.665.392-1.248.592-1.756l.128-.137,1.7-4.337c.647-1.661,1.339-3.4,2.12-5.248l2.339-5.713c.774-1.944,1.558-3.827,2.29-5.622l2.163-5.021q.97-2.3,1.686-3.863l-.006.009c.267-.535.443-1.036.617-1.458v-.009a4.255,4.255,0,0,0,.252-1.355,2.435,2.435,0,0,0-.82-2.017A2.734,2.734,0,0,0,77,10.938Z" transform="translate(0 -7.041)"/>
</svg>
