<svg xmlns="http://www.w3.org/2000/svg" width="89.292" height="89.292" viewBox="0 0 89.292 89.292">
  <path id="javascript" d="M0,0H89.292V89.292H0ZM81.978,68c-.65-4.075-3.3-7.5-11.174-10.688-2.738-1.282-5.782-2.175-6.687-4.241a4.37,4.37,0,0,1-.171-2.622c.558-2.4,3.405-3.125,5.635-2.456a6.053,6.053,0,0,1,3.631,3.348c3.847-2.515,3.847-2.515,6.528-4.187a15.4,15.4,0,0,0-2.18-2.9c-2.344-2.622-5.467-3.961-10.544-3.847l-2.622.332a12,12,0,0,0-6.362,3.738c-4.241,4.8-3.019,13.173,2.116,16.636,5.077,3.795,12.506,4.628,13.453,8.2.893,4.353-3.237,5.747-7.315,5.246-3.019-.67-4.688-2.18-6.528-4.971L52.95,73.5a15.04,15.04,0,0,0,3.014,4.125c6.474,6.533,22.658,6.2,25.562-3.735a12.573,12.573,0,0,0,.275-6.139l.171.251ZM48.555,41.042H40.191c0,7.21-.032,14.376-.032,21.6,0,4.584.236,8.793-.513,10.085-1.228,2.562-4.39,2.235-5.826,1.786a7.188,7.188,0,0,1-3.088-3.18,3.142,3.142,0,0,0-.474-.729l-6.789,4.187a13.178,13.178,0,0,0,4.926,5.645,16.37,16.37,0,0,0,11.93,1.508,10.436,10.436,0,0,0,6.737-5.251c1.9-3.46,1.5-7.7,1.478-12.449.045-7.642,0-15.286,0-22.988l.015-.208Z"/>
</svg>
