<svg xmlns="http://www.w3.org/2000/svg" width="92.695" height="89.292"><path d="M5.891 20.962c-8.207 11.795-7.193 27.137-.915 39.658.142.3.3.6.456.887.09.2.191.387.3.575a2.443 2.443 0 00.183.32c.1.2.209.394.312.588l.602 1.03c.113.191.222.376.348.565.214.364.464.722.683 1.088.1.15.193.3.3.454q.563.884 1.2 1.717c.3.415.6.817.928 1.219.106.147.222.294.33.441l.856 1.042c.106.119.209.26.32.384.379.456.781.9 1.183 1.348 0 .008.013.015.018.028a12.1 12.1 0 001.64 1.7c.309.317.619.634.946.944l.392.376c.431.4.858.8 1.312 1.191.008 0 .013.008.018.013l.222.193c.394.345.791.688 1.2 1.005l.485.407c.33.263.668.516 1.005.773l.526.4c.361.271.742.539 1.109.8.137.1.271.193.41.281l.113.09 1.088.714.464.309c.567.364 1.134.706 1.694 1.049.162.083.325.17.474.263.418.24.851.485 1.274.706.232.131.472.245.712.364.289.162.59.32.9.485a1.254 1.254 0 01.217.09c.129.057.247.119.371.183.464.232.946.454 1.451.673a3.15 3.15 0 01.294.131c.557.245 1.114.474 1.689.7.131.039.271.106.407.155.523.2 1.06.4 1.588.588l.193.07c.59.2 1.176.394 1.776.58.139.039.281.09.431.129a18.375 18.375 0 001.83.526c39.677 7.232 51.208-23.855 51.208-23.855-9.681 12.622-26.871 15.948-43.15 12.248-.6-.139-1.207-.333-1.815-.51q-1.1-.325-2.191-.7l-.24-.093c-.526-.178-1.034-.376-1.547-.572q-.21-.086-.425-.157a53.684 53.684 0 01-1.671-.706c-.119-.039-.222-.093-.34-.139q-.7-.323-1.395-.657-.209-.092-.41-.2c-.364-.17-.727-.364-1.083-.549q-.366-.176-.722-.371c-.438-.232-.874-.485-1.312-.722a4.922 4.922 0 00-.433-.255q-.855-.507-1.694-1.042-.233-.144-.456-.3-.616-.379-1.207-.8c-.137-.09-.26-.186-.4-.281q-.576-.4-1.137-.82c-.162-.131-.338-.255-.51-.387-.34-.268-.683-.523-1.026-.8l-.456-.364q-.657-.531-1.292-1.088a1 1 0 00-.142-.116l-1.339-1.228-.387-.364c-.317-.32-.642-.629-.967-.946l-.376-.387q-.613-.61-1.2-1.25l-.057-.062q-.615-.676-1.212-1.369c-.106-.119-.2-.248-.309-.376l-.874-1.072q-.669-.857-1.315-1.732C8.312 43.82 5.043 26.809 12.272 12.852m19.091-1.825c-5.95 8.544-5.615 19.967-.982 29A35.192 35.192 0 0033 44.405a20.509 20.509 0 003.062 3.815c.415.472.864.928 1.33 1.387l.348.348c.441.425.895.843 1.353 1.258l.057.049q.782.683 1.6 1.323c.131.09.245.193.371.281.541.418 1.088.82 1.65 1.219l.057.034c.24.175.495.333.766.5.108.07.232.162.348.232.41.263.812.51 1.227.761.067.028.124.062.186.09.348.214.727.418 1.091.606.129.077.253.137.384.209.26.129.516.263.761.394l.124.054c.523.255 1.057.495 1.578.735.131.049.245.093.356.147.431.186.866.364 1.3.531.193.067.376.142.557.2.394.147.81.281 1.2.418l.541.175a13.091 13.091 0 001.732.5c30.628 5.079 37.72-18.513 37.72-18.513-6.39 9.187-18.744 13.562-31.915 10.146q-.873-.226-1.732-.5c-.186-.049-.348-.108-.526-.162-.4-.139-.817-.273-1.207-.423l-.557-.209c-.433-.175-.874-.338-1.3-.523-.131-.057-.253-.1-.353-.155-.541-.245-1.088-.485-1.611-.742l-.8-.415-.459-.232q-.521-.276-1.026-.58a2.4 2.4 0 01-.24-.131c-.41-.255-.835-.5-1.227-.766-.131-.072-.253-.162-.376-.24l-.8-.526c-.557-.387-1.1-.8-1.65-1.207-.124-.113-.245-.206-.364-.3a36.767 36.767 0 01-12.522-17.82 27.686 27.686 0 012.163-22.2m16.587-.579A17.859 17.859 0 0051.35 20.82a24.314 24.314 0 0013.934 13.017c.253.1.495.178.753.271l.34.106c.356.113.714.245 1.083.325 16.924 3.263 21.504-8.689 22.739-10.444-4.03 5.785-10.787 7.172-19.073 5.159a18.732 18.732 0 01-2-.619 24.531 24.531 0 01-2.385-.982 25.216 25.216 0 01-4.176-2.552C55.145 19.477 50.548 8.742 55.39 0"/></svg>