<svg xmlns="http://www.w3.org/2000/svg" width="91.538" height="109.346"><path d="M91.535 79.839a63.492 63.492 0 01-8.082 16.429q-8.477 12.878-16.887 12.878-3.22 0-9.2-2.1a29.064 29.064 0 00-9.923-2.1 25.29 25.29 0 00-9.331 2.169 23.738 23.738 0 01-8.675 2.235q-9.987 0-19.779-17.018Q0 75.173 0 59.27 0 44.287 7.426 34.7q7.426-9.461 18.661-9.461a43.709 43.709 0 0111.63 1.971q6.834 1.971 9.069 1.971 2.958 0 9.4-2.235a37.1 37.1 0 0111.369-2.235 24.021 24.021 0 0114 4.27 33.933 33.933 0 016.834 6.57 42.591 42.591 0 00-7.49 7.754 23.4 23.4 0 00-4.27 13.6 25.024 25.024 0 004.535 14.655q4.535 6.506 10.382 8.28zM66.827 2.761a25.058 25.058 0 01-1.9 8.936 26.962 26.962 0 01-6.111 9.069 18.632 18.632 0 01-7.1 4.732 36.708 36.708 0 01-6.834 1.118 29.951 29.951 0 015.124-16.888Q54.869 2.694 66.435 0a6.092 6.092 0 01.165.723 6.09 6.09 0 00.164.723q0 .264.033.656t.033.656z"/></svg>