<svg xmlns="http://www.w3.org/2000/svg" width="109.34" height="74.242"><path d="M74.742 7.512a4.95 4.95 0 00-1.248.152v.058h.064a10.414 10.414 0 00.975 1.245c.246.489.456.975.7 1.458l.067-.066a1.7 1.7 0 00.638-1.519c-.182-.216-.21-.428-.364-.638-.182-.307-.574-.456-.82-.7zM26.288 67.623h-4.225q-.178-10.068-1.23-20.092H20.8l-6.427 20.092h-3.21L4.784 47.532h-.046q-.747 10.027-.887 20.091H0q.378-13.435 1.868-25.194h5.239l6.081 18.515h.036l6.139-18.515h4.99q1.654 13.768 1.95 25.194zm18.3-18.588q-2.583 13.973-6.8 20.32-3.294 4.893-7.211 4.887A7.118 7.118 0 0128 73.613v-2.254a11.5 11.5 0 001.759.118 4.25 4.25 0 002.949-1.011 3.677 3.677 0 001.346-2.755 18.211 18.211 0 00-1.048-4.3l-4.622-14.376h4.146l3.314 10.752a14.351 14.351 0 01.932 5.115 69.412 69.412 0 003.8-15.867h4.009zm56.151 18.588h-11.98V42.429h4.034v22.1h7.952zm-15.126.617l-4.626-2.281a10.034 10.034 0 001.163-1.139q2.957-3.455 2.95-10.261 0-12.506-9.817-12.511a9.345 9.345 0 00-7.517 3.174q-2.939 3.472-2.943 10.23 0 6.643 2.615 9.75 2.392 2.8 7.211 2.8a11.619 11.619 0 003.3-.446l6.035 3.517 1.64-2.834zm-15-5.659c-1.027-1.64-1.537-4.283-1.537-7.909q0-9.522 5.786-9.522a4.876 4.876 0 014.453 2.278q1.531 2.474 1.531 7.851 0 9.595-5.786 9.6a4.875 4.875 0 01-4.456-2.278zm-7.554-1.935a6.675 6.675 0 01-2.351 5.267 9.24 9.24 0 01-6.301 2.046 12.634 12.634 0 01-7.165-2.345l1.078-2.169a12.219 12.219 0 005.422 1.494 5.7 5.7 0 003.569-1 3.435 3.435 0 001.367-2.8c0-1.5-1.048-2.779-2.952-3.851-1.768-.972-5.3-2.995-5.3-2.995a6.032 6.032 0 01-2.879-5.364 6.243 6.243 0 012.141-4.942 8.073 8.073 0 015.558-1.889 11.437 11.437 0 016.378 1.868l-.972 2.169a12.42 12.42 0 00-4.848-1.048 4.292 4.292 0 00-2.98.939 3.122 3.122 0 00-1.13 2.387c0 1.494 1.066 2.779 3.034 3.873 1.792.981 5.406 3.052 5.406 3.052a5.935 5.935 0 012.957 5.321zm42.744-26.661a13.984 13.984 0 00-5.911.857c-.456.182-1.185.182-1.248.762.252.243.289.638.5.975a6.936 6.936 0 001.576 1.853c.638.5 1.276.984 1.944 1.412 1.185.729 2.53 1.163 3.69 1.9.659.428 1.336.972 2 1.428.331.228.547.638.975.784v-.097c-.21-.273-.273-.668-.48-.975-.307-.307-.611-.58-.911-.878a14.685 14.685 0 00-3.165-3.077c-.975-.665-3.107-1.595-3.508-2.709l-.058-.064a12.117 12.117 0 002.1-.483c1.036-.273 1.98-.216 3.053-.483a27.55 27.55 0 001.458-.428v-.273c-.547-.547-.957-1.288-1.522-1.8a40.4 40.4 0 00-5.03-3.748c-.957-.611-2.169-1-3.174-1.522-.364-.182-.975-.273-1.185-.58a11.83 11.83 0 01-1.254-2.342q-1.343-2.6-2.494-5.3a31.539 31.539 0 00-1.549-3.478 30.674 30.674 0 00-11.782-11.39 14.837 14.837 0 00-3.9-1.248c-.762-.036-1.522-.091-2.278-.125a11.333 11.333 0 01-1.412-1.069c-1.731-1.093-6.214-3.463-7.49-.328-.82 1.977 1.218 3.927 1.923 4.93a13.882 13.882 0 011.549 2.278c.216.528.273 1.069.489 1.622a36.311 36.311 0 001.591 4.088 13.79 13.79 0 001.124 1.88c.246.331.665.489.762 1.036a8.868 8.868 0 00-.7 2.278 13.5 13.5 0 00.884 10.251c.489.756 1.649 2.433 3.2 1.792 1.367-.547 1.066-2.278 1.458-3.8.091-.364.033-.607.219-.85v.067c.428.857.857 1.671 1.248 2.53a17.2 17.2 0 003.949 4.079c.729.547 1.306 1.494 2.217 1.831v-.091h-.067a4.2 4.2 0 00-.7-.607 15.692 15.692 0 01-1.595-1.822 39.909 39.909 0 01-3.4-5.549c-.5-.957-.92-1.986-1.321-2.931-.182-.364-.182-.911-.489-1.093a11.409 11.409 0 00-1.458 2.062 17.345 17.345 0 00-.857 4.6c-.125.033-.064 0-.125.064-.975-.237-1.306-1.248-1.671-2.1a13.208 13.208 0 01-.273-8.131c.216-.638 1.124-2.652.762-3.262-.191-.58-.793-.911-1.124-1.382a11.289 11.289 0 01-1.093-1.944c-.729-1.7-1.093-3.59-1.886-5.294a15.952 15.952 0 00-1.522-2.339 15.2 15.2 0 01-1.677-2.369c-.152-.331-.364-.884-.125-1.248a.521.521 0 01.428-.41c.4-.328 1.528.1 1.923.282A15.668 15.668 0 0171.4 3.53c.428.3.887.878 1.437 1.03h.638c.975.216 2.071.064 2.986.331a19.5 19.5 0 014.383 2.1 27.123 27.123 0 019.5 10.415c.364.7.525 1.346.856 2.071.638 1.5 1.428 3.022 2.071 4.474a19.821 19.821 0 002.169 4.085c.456.638 2.287.972 3.107 1.3a22.374 22.374 0 012.1.857c1.048.638 2.068 1.367 3.052 2.068.5.346 2.017 1.106 2.111 1.722z"/></svg>