<svg xmlns="http://www.w3.org/2000/svg" width="109.343" height="57.521"><path d="M31.937 20.59h-4.3l-2.345 12.064h3.818q3.8 0 5.659-1.431a7.609 7.609 0 002.506-4.778q.629-3.212-.565-4.532c-.8-.878-2.381-1.321-4.772-1.321zM54.671 0C24.478 0 0 12.875 0 28.757S24.478 57.52 54.671 57.52s54.671-12.881 54.671-28.763S84.865 0 54.671 0zM39.819 33.945a11.074 11.074 0 01-4.179 2.512 19.456 19.456 0 01-5.853.747h-5.379l-1.492 7.664h-6.278l5.6-28.821h12.077q5.449 0 7.946 2.861t1.5 7.982a12.556 12.556 0 01-3.948 7.059zm18.333 3.259l2.475-12.754c.289-1.449.176-2.442-.31-2.967s-1.531-.793-3.128-.793h-4.978L49 37.207h-6.229l5.6-28.827H54.6l-1.49 7.663h5.549c3.5 0 5.9.61 7.226 1.828s1.722 3.189 1.2 5.917l-2.606 13.413h-6.327zm34.613-10.318a12.674 12.674 0 01-1.391 3.857 12.886 12.886 0 01-2.557 3.2 11.117 11.117 0 01-4.179 2.512 19.471 19.471 0 01-5.859.747H73.4l-1.489 7.666h-6.278l5.6-28.821h12.07q5.449 0 7.946 2.861t1.51 7.979zm-11.824-6.3h-4.295L74.3 32.654h3.818q3.809 0 5.659-1.431a7.641 7.641 0 002.512-4.778c.419-2.141.225-3.654-.571-4.532s-2.387-1.321-4.772-1.321z"/></svg>