<svg xmlns="http://www.w3.org/2000/svg" width="109.343" height="57.521" viewBox="0 0 109.343 57.521">
  <path id="php" d="M31.937,29.122h-4.3L25.292,41.186H29.11q3.8,0,5.659-1.431a7.609,7.609,0,0,0,2.506-4.778q.629-3.212-.565-4.532c-.8-.878-2.381-1.321-4.772-1.321ZM54.671,8.532C24.478,8.532,0,21.407,0,37.289S24.478,66.052,54.671,66.052s54.671-12.881,54.671-28.763S84.865,8.532,54.671,8.532ZM39.819,42.477a11.074,11.074,0,0,1-4.179,2.512,19.456,19.456,0,0,1-5.853.747H24.408L22.916,53.4H16.638l5.6-28.821H34.315q5.449,0,7.946,2.861t1.5,7.982a12.556,12.556,0,0,1-3.948,7.059Zm18.333,3.259,2.475-12.754c.289-1.449.176-2.442-.31-2.967s-1.531-.793-3.128-.793H52.211L49,45.739H42.771l5.6-28.827H54.6L53.11,24.575h5.549c3.5,0,5.9.61,7.226,1.828s1.722,3.189,1.2,5.917L64.479,45.733H58.152ZM92.765,35.418a12.674,12.674,0,0,1-1.391,3.857,12.886,12.886,0,0,1-2.557,3.2,11.117,11.117,0,0,1-4.179,2.512,19.471,19.471,0,0,1-5.859.747H73.4L71.911,53.4H65.633l5.6-28.821h12.07q5.449,0,7.946,2.861t1.51,7.979Zm-11.824-6.3H76.646L74.3,41.186h3.818q3.809,0,5.659-1.431a7.641,7.641,0,0,0,2.512-4.778c.419-2.141.225-3.654-.571-4.532s-2.387-1.321-4.772-1.321Z" transform="translate(0 -8.532)"/>
</svg>
