<svg xmlns="http://www.w3.org/2000/svg" width="109.338" height="75.179"><path d="M109.3 52.982a9.886 9.886 0 00-3.845-6.573.763.763 0 00-.091-.094l-.112-.082-.036-.024-1.191-.853-.039-.03-.152-.106a.747.747 0 00-.176-.076c-3.763-2.242-9.993-3.809-19.524-.446-2.275-3.827-2.533-6.895-1.011-11.593a1.227 1.227 0 00-.793-1.71c-1.631-.7-3.866-.34-5.449.079a1.637 1.637 0 00-1.324 1.245c-1 4.7-3.921 8.99-6.743 13.133l-.167.243c-1.737-3.687-1.379-6.542-.167-10.117a1.126 1.126 0 00-.617-1.543c-1.868-.963-4.665-.3-5.78.027-1.412.413-2.931 4.234-4.623 8.808-.428 1.151-.8 2.135-1.014 2.594-.522 1.069-1.024 2.284-1.552 3.578-1.2 2.925-2.542 6.214-4.471 8.283-.7-1.549.4-3.988 1.47-6.357 1.267-2.8 2.463-5.446 1.084-7.135a2.524 2.524 0 00-1.78-.923 2.831 2.831 0 00-1.312.213 7.465 7.465 0 00-.2-3.311 3.434 3.434 0 00-3.614-2.515c-4.1.118-7.578 3.177-9.771 5.722-1.461 1.71-4.7 3.01-7.542 4.155-1.124.477-2.19.9-3.083 1.33a61.384 61.384 0 00-5.127-3.69c-5.34-3.584-11.39-7.648-11.6-13.158-.3-8.14 8.969-13.911 17.061-18.029a73.207 73.207 0 0116.3-6.315c6.791-1.585 12.529-1.267 17.045.948a5.5 5.5 0 012.895 6.551c-1.923 7.037-9.886 11.858-16.7 14.029a29.767 29.767 0 01-10.679 1.674 18.3 18.3 0 01-8.371-2.989 4.523 4.523 0 00-.683-.386l-.061-.015a.686.686 0 00-.68.213 1.194 1.194 0 00-.079 1.118c1.312 3.432 4.024 5.6 8.061 6.442a19.667 19.667 0 004.009.383c9.443 0 21.489-5.443 25.914-9.926a19.84 19.84 0 006.12-11.607c.951-5.671-2.895-9.61-6.81-11.426-9.519-4.392-20.329-2.658-27.721-.428a74.246 74.246 0 00-24.545 13.011C1.455 22.277-1.64 28.76.815 34.577c2.521 5.965 8.672 9.7 14.622 13.3 1.923 1.163 3.751 2.272 5.4 3.417-.5.24-1 .486-1.516.732-4.996 2.426-10.661 5.151-13.802 9.651-2.281 3.275-2.709 6.54-1.269 9.7a6.157 6.157 0 004.034 3.39 10.679 10.679 0 003.037.413 20.9 20.9 0 009.979-2.877 16.466 16.466 0 007.536-9.8 15.445 15.445 0 00-.671-10.369l4.8-2.418c-2.311 7.687-.541 12.28 1.406 14.813a4.853 4.853 0 006.986.076 28.728 28.728 0 003.441-5.883 9.627 9.627 0 00.471 3.863 3.148 3.148 0 001.968 2 3.618 3.618 0 003.074-.671c4.732-3.247 7.969-11.023 10.569-17.274.371-.887.723-1.743 1.069-2.542a32.569 32.569 0 002.67 6.637.711.711 0 01-.112 1.033c-.513.565-1.233 1.245-1.992 1.968-2.3 2.184-5.169 4.911-5.552 7.311a1.815 1.815 0 001.537 2.03 13.711 13.711 0 009.959-2.4 7.05 7.05 0 003.2-7.943c-.711-3.217.911-7.211 4.823-11.879a22.294 22.294 0 002.673 6.734l-.033.024c-2.849 2.488-6.752 5.9-6.147 10.026a2.852 2.852 0 001.191 1.968 3.037 3.037 0 002.39.44 14.518 14.518 0 008.58-4.82c2.041-2.457 1.3-5.182.607-7.3a24.219 24.219 0 0114.543.106 9.01 9.01 0 015.324 4.195c1.3 2.436.6 4.687-1.983 6.333-.793.507-1.175.817-1.2 1.206a.565.565 0 00.213.477c.3.246 1.221.671 3.308-.641a6.753 6.753 0 003.338-4.911 8.329 8.329 0 000-1.71zm-85.369 5.352l-.021.273a11.907 11.907 0 01-4.729 8.116 10.619 10.619 0 01-5.391 2.463 3.466 3.466 0 01-2.582-.486 2.04 2.04 0 01-.641-1.494c-.349-5.443 8.183-10.849 12.988-12.629a10.974 10.974 0 01.38 3.757zm21.857-15.348c-.79 4.5-3.1 13.006-6.715 16.3-.173.158-.319.213-.386.2s-.118-.094-.17-.213c-1.209-2.8-.762-7.536 1.069-11.253 1.406-2.867 3.417-4.766 5.665-5.34a1.13 1.13 0 01.286-.039.337.337 0 01.213.058.349.349 0 01.039.286zm17.829 16.42c-.68.711-1.616.614-1.394.355l3.468-3.684a7.243 7.243 0 01-2.074 3.329zM78 56.223a3 3 0 01-1.054.3c-.1-1.938 1.78-4.119 3.63-5.57A4.772 4.772 0 0178 56.226z"/></svg>