<svg xmlns="http://www.w3.org/2000/svg" width="90.279" height="90.279"><path d="M18.966 57.044a9.483 9.483 0 11-9.479-9.479h9.479zm4.78 0a9.482 9.482 0 0118.964 0v23.748a9.481 9.481 0 11-18.961 0V57.044zm9.484-38.078a9.483 9.483 0 119.482-9.479v9.479H33.23zm0 4.78a9.482 9.482 0 110 18.964H9.487a9.481 9.481 0 110-18.961H33.23zm38.075 9.482a9.487 9.487 0 119.487 9.484h-9.487V33.23zm-4.77 0a9.486 9.486 0 01-18.971 0V9.487a9.486 9.486 0 1118.971 0V33.23zM57.044 71.3a9.488 9.488 0 11-9.479 9.489v-9.484h9.479zm0-4.77a9.486 9.486 0 010-18.971h23.748a9.487 9.487 0 110 18.974H57.044z"/></svg>