<svg xmlns="http://www.w3.org/2000/svg" width="90.279" height="90.279" viewBox="0 0 90.279 90.279">
  <path id="slack" d="M18.966,57.044a9.483,9.483,0,1,1-9.479-9.479h9.479Zm4.78,0a9.482,9.482,0,0,1,18.964,0V80.792a9.481,9.481,0,1,1-18.961,0V57.044ZM33.23,18.966a9.483,9.483,0,1,1,9.482-9.479v9.479H33.23Zm0,4.78a9.482,9.482,0,1,1,0,18.964H9.487a9.481,9.481,0,1,1,0-18.961H33.23Zm38.075,9.482a9.487,9.487,0,1,1,9.487,9.484H71.305V33.23Zm-4.77,0a9.486,9.486,0,0,1-18.971,0V9.487a9.486,9.486,0,1,1,18.971,0V33.23ZM57.044,71.3a9.488,9.488,0,1,1-9.479,9.489V71.305h9.479Zm0-4.77a9.486,9.486,0,0,1,0-18.971H80.792a9.487,9.487,0,1,1,0,18.974H57.044Z"/>
</svg>
