<svg xmlns="http://www.w3.org/2000/svg" width="109.378" height="67.194" viewBox="0 0 109.378 67.194">
  <path id="stylus" d="M62.3,26.228c-2.032-1.613-7.736,1.087-9.349,5.094-2.026,5.087-5.033,12.514-7.982,15.767-3.113,3.423-3.423.781-3.113-1.194.72-4.647,5.255-15.408,7.733-18.443-.92-1.364-6.925-1.166-11.1,5.312-1.558,2.448-5.115,10.6-9.066,17.021-.866,1.391-1.95.419-1.112-2.834a155.372,155.372,0,0,1,7.311-22.2c9.4-1.862,19.387-3.171,27.035-3.2,1.03-.276,1.722-1.2,0-1.254-6.594-.225-16.493.556-25.753,1.728,1.783-3.563,3.7-6.4,5.646-7.6-2.114-1.336-6.4-.8-8.845,2.81a48.066,48.066,0,0,0-3.2,5.674c-6.788,1.057-12.6,2.251-15.548,3.368-3.056,1.166-2.724,4.866-.86,4.17a123.347,123.347,0,0,1,14.907-4.283,117.842,117.842,0,0,0-7.283,22.2C20,58.1,26.035,58.046,28.981,54.21c3.2-4.2,9.871-18.971,10.9-20.526.307-.528.723-.252.5.219C32.93,48.783,33.568,54.541,39.6,53.26c2.724-.583,7.426-5.255,8.653-7.675.252-.583.781-.528.665-.276C44.192,57.579,38.187,67.5,34.154,70.621c-3.672,2.806-6.4-3.283,6.588-12.019,1.923-1.3,1.03-3.086-1.139-2.475-6.7,1.057-25.89,7.147-34.322,12.991-.641.446-1.227.8-1.2,1.728.027.528.948.331,1.394.055,10.9-6.536,19.828-9.094,30.066-11.238a.625.625,0,0,0,.443.033c.474-.115.446.137.14.331q-.759.44-1.558.8c-6.9,2.7-11.071,8.647-9.595,11.681,1.254,2.615,8.009,1.667,11.208-.055,7.845-4.255,13.546-12.6,17.44-24.116C57.013,38.131,61.3,26.565,62.3,26.228ZM16.85,59.191c2.837-3.393,3.171-6.9.975-13.41-1.391-4.116-3.7-7.283-2-9.847,1.81-2.724,5.649-.082,2.451,3.557l.638.446c3.839.446,5.731-4.811,2.867-6.315C14.208,29.675,7.59,37.268,10.511,46.058c1.254,3.727,3.007,7.675,1.585,10.822-1.221,2.7-3.587,4.283-5.173,4.337-3.314.167-1.112-7.426,2.7-9.315.331-.164.8-.389.358-.942-4.7-.528-7.454,1.64-9.039,4.668C-3.673,64.443,9.7,67.7,16.85,59.191Zm91.034-9.4c-12.766-1.667-40.3.556-52.454,3.784-3.617.942-2.615,2.861-.781,2.5.027,0,.8-.2.832-.2,9.987-1.944,34.212-3.645,48.339-.942,1.7.307,6.788-4.784,4.061-5.148Zm-42.024-1.5C69.417,46.5,74.7,35.491,78.18,29.456c.252-.446.7-.085.446.219-8.787,15.132-5.063,16.884-1.585,16.663,4.647-.276,8.93-6.952,9.871-8.456.392-.583.617-.109.392.31-.225.693-1.03,1.917-1.783,3.587-1.057,2.363.055,3.28.975,3.7,1.446.7,5.394.252,6-2.169-3.945-.082,5.51-18.719,6.485-19.858-2.642-1.531-6.731.14-8.6,3.809-3.973,7.873-7.311,14.215-9.4,14.324-4.061.225,4.674-17.55,6.093-18.105-.86-1.254-6.4-.723-9.486,4.061C76.485,29.268,69.7,41.28,68.029,43.258c-2.949,3.5-3.171.5-2.339-3.007a40,40,0,0,1,1.367-4.419c1.944-4.4,4.034-5.786,5.312-7.208,8.593-9.534,13.516-17.27,11.569-20.3-1.722-2.7-7.481-1.5-11.18,4.061-6.816,10.211-13.1,24.2-13.9,30.6-.781,6.4,3.863,6.864,7.007,5.312Zm33.6-15.023c1.084,2.67,2.724,5.312,1.749,7.648-.8,2-1.862,2.837-3.031,3.031-1.64.276-1.2-4.866,1.613-6.4.252-.137.61-.8.276-1.194a6.389,6.389,0,0,0-6.649,3.754c-3.144,6.594,7.122,8.4,12.155,1.917,2-2.588,2.087-5.145.164-9.792-1.221-2.949-3.086-5.145-1.917-7.092,1.254-2.053,4.255-.276,2,2.478l.5.276c2.922.164,4.116-3.727,1.889-4.7-5.868-2.5-11.35,3.809-8.763,10.069Zm-29.984-3.7c.307-.7.5-.887,1.03-2.059,3.056-6.731,6.9-13.823,9.54-17.13,1.64-1.728,3.945.61-.225,7.007A64.557,64.557,0,0,1,71.561,27.7v.027c-.781.86-1.476,1.585-1.783,2-.225.276-.474.225-.307-.167Z" transform="translate(0.006 -6.939)"/>
</svg>
