<svg xmlns="http://www.w3.org/2000/svg" width="84.225" height="109.46" viewBox="0 0 84.225 109.46">
  <path id="sublimetext" d="M88.342,55.014a3.28,3.28,0,0,0-2.1-2.961s-33.612-5.33-33.623-10.661S86.2,30.731,86.2,30.731a3.326,3.326,0,0,0,2.141-3.007V1.8A1.595,1.595,0,0,0,86.2.069L6.29,25.492a3.1,3.1,0,0,0-2.141,2.916V54.376a2.961,2.961,0,0,0,2.1,2.825L40.232,68,6.244,78.751a3.326,3.326,0,0,0-2.1,3.007v25.923a1.549,1.549,0,0,0,2.1,1.64l80-25.377a2.961,2.961,0,0,0,2.1-2.825Z" transform="translate(-4.136 0.034)"/>
</svg>
