<svg xmlns="http://www.w3.org/2000/svg" width="87.815" height="96.975" viewBox="0 0 87.815 96.975">
  <path id="webpack" d="M88.617,77.314,49.136,99.547V82.234l24.6-13.47,14.88,8.553Zm2.7-2.433v-46.5l-14.442,8.3V66.568l14.442,8.31ZM6.2,77.314,45.673,99.547V82.234L21.08,68.764,6.2,77.317ZM3.5,74.881v-46.5l14.442,8.3V66.568L3.5,74.878ZM5.189,25.376l40.484-22.8V19.311L19.737,33.519l-.2.115L5.189,25.379Zm84.44,0L49.136,2.575V19.314L75.074,33.519l.2.115,14.351-8.255ZM45.673,78.3,21.4,65.01V38.689L45.67,52.639v25.65Zm3.463,0L73.4,65.01V38.689L49.136,52.639v25.65ZM23.054,35.642,47.416,22.3l24.362,13.34L47.416,49.653Z" transform="translate(-3.5 -2.572)"/>
</svg>
