<svg xmlns="http://www.w3.org/2000/svg" width="87.815" height="96.975"><path d="M85.117 74.742L45.636 96.975V79.662l24.6-13.47 14.88 8.553zm2.7-2.433v-46.5l-14.442 8.3v29.887l14.442 8.31zM2.7 74.742l39.473 22.233V79.662L17.58 66.192 2.7 74.745zM0 72.309v-46.5l14.442 8.3v29.887L0 72.306zm1.689-49.505L42.173.004v16.735L16.237 30.947l-.2.115-14.348-8.255zm84.44 0L45.636.003v16.739l25.938 14.205.2.115 14.351-8.255zM42.173 75.728L17.9 62.438V36.117l24.27 13.95v25.65zm3.463 0L69.9 62.438V36.117l-24.264 13.95v25.65zM19.554 33.07l24.362-13.342 24.362 13.34-24.362 14.013z"/></svg>