<svg xmlns="http://www.w3.org/2000/svg" width="83.432" height="83.432"><path d="M74.634 23.727a37.533 37.533 0 01-14.063 50.4l11.454-33.113a35.483 35.483 0 002.851-13.433 29.424 29.424 0 00-.243-3.859m-27.743.366c2.25-.1 4.283-.366 4.283-.366a1.568 1.568 0 00-.234-3.126s-6.1.47-10.012.47c-3.7 0-9.908-.521-9.908-.521-2.032-.1-2.3 2.971-.26 3.078 0 0 1.877.211 3.912.313l5.84 16.01-8.239 24.612-13.66-40.571c2.257-.1 4.29-.348 4.29-.348a1.562 1.562 0 00-.227-3.115s-6.07.48-9.991.48c-.7 0-1.523-.028-2.4-.051A38.037 38.037 0 0141.716 4.225a37.341 37.341 0 0125.329 9.85c-.16-.012-.317-.03-.489-.03a6.494 6.494 0 00-6.3 6.654c0 3.094 1.785 5.713 3.685 8.8a19.78 19.78 0 013.094 10.348c0 3.182-1.231 6.932-2.855 12.1L60.444 64.4 46.886 24.04v.049zM41.716 79.2a37.532 37.532 0 01-10.6-1.518l11.254-32.7L53.9 76.577a5.163 5.163 0 00.271.517 37.51 37.51 0 01-12.452 2.116M4.211 41.716a37.293 37.293 0 013.252-15.261l17.88 49.012A37.523 37.523 0 014.211 41.716M41.716 0a41.716 41.716 0 1041.716 41.716A41.773 41.773 0 0041.716 0"/></svg>