<svg xmlns="http://www.w3.org/2000/svg" width="109.313" height="24.776"><path d="M20.878 19.715l-1.23-.055H8.594l14.74-14.74-.058-1.23A3.712 3.712 0 0019.652.066l-1.23-.058H0l.064 1.23a3.8 3.8 0 003.617 3.624l1.23.058h11.062L1.227 19.66l.067 1.228a3.76 3.76 0 003.62 3.626l1.23.058h18.425l-.064-1.23a3.8 3.8 0 00-3.624-3.624zM35.628.009h-.018a12.277 12.277 0 10.015 0zm5.2 17.489a7.372 7.372 0 11-.144-10.28 7.372 7.372 0 01.144 10.28zM99.472.012a9.829 9.829 0 00-7.356 3.32A9.823 9.823 0 0079.24 1.686 6.8 6.8 0 0074.921 0v24.566l1.23-.058a3.717 3.717 0 003.623-3.627l.058-1.23v-8.592l.064-1.23a5.28 5.28 0 01.6-2.46 4.909 4.909 0 018.5-.006 5.365 5.365 0 01.6 2.46l.064 1.236v8.6l.058 1.227a3.778 3.778 0 003.623 3.627l1.23.058V11.059l.055-1.23a5.284 5.284 0 01.61-2.475 4.91 4.91 0 018.5.015 5.46 5.46 0 01.6 2.46l.064 1.23v8.6l.058 1.227a3.765 3.765 0 003.627 3.627l1.23.058V9.829A9.829 9.829 0 0099.474.012zm-46.744 3.59a12.283 12.283 0 1017.164.209 12.283 12.283 0 00-17.164-.209zm13.893 13.9a7.371 7.371 0 110-10.425 7.371 7.371 0 010 10.425z"/></svg>