<svg xmlns="http://www.w3.org/2000/svg" width="109.313" height="24.776" viewBox="0 0 109.313 24.776">
  <path id="zoom" d="M20.884,33.669l-1.23-.055H8.6l14.74-14.74-.058-1.23a3.712,3.712,0,0,0-3.624-3.624l-1.23-.058H.006l.064,1.23a3.8,3.8,0,0,0,3.617,3.624l1.23.058H15.979L1.233,33.614,1.3,34.842A3.76,3.76,0,0,0,4.92,38.468l1.23.058H24.575l-.064-1.23a3.8,3.8,0,0,0-3.624-3.624ZM35.634,13.963h-.018a12.277,12.277,0,1,0,.015,0Zm5.2,17.489a7.372,7.372,0,1,1-.144-10.28,7.372,7.372,0,0,1,.144,10.28ZM99.478,13.966a9.829,9.829,0,0,0-7.356,3.32A9.823,9.823,0,0,0,79.246,15.64a6.8,6.8,0,0,0-4.319-1.686V38.52l1.23-.058a3.717,3.717,0,0,0,3.623-3.627l.058-1.23V25.013l.064-1.23a5.28,5.28,0,0,1,.6-2.46,4.909,4.909,0,0,1,8.5-.006,5.365,5.365,0,0,1,.6,2.46l.064,1.236v8.6l.058,1.227a3.778,3.778,0,0,0,3.623,3.627l1.23.058V25.013l.055-1.23a5.284,5.284,0,0,1,.61-2.475,4.91,4.91,0,0,1,8.5.015,5.46,5.46,0,0,1,.6,2.46l.064,1.23v8.6l.058,1.227a3.765,3.765,0,0,0,3.627,3.627l1.23.058V23.783a9.829,9.829,0,0,0-9.841-9.817Zm-46.744,3.59a12.283,12.283,0,1,0,17.164.209A12.283,12.283,0,0,0,52.734,17.556Zm13.893,13.9a7.371,7.371,0,1,1,0-10.425,7.371,7.371,0,0,1,0,10.425Z" transform="translate(-0.006 -13.954)"/>
</svg>
