<svg xmlns="http://www.w3.org/2000/svg" width="21.846" height="21.846"><path data-name="パス 14" d="M19.115 1.365H2.731a1.365 1.365 0 00-1.366 1.366v16.384a1.365 1.365 0 001.366 1.365h16.384a1.365 1.365 0 001.365-1.365V2.731a1.365 1.365 0 00-1.365-1.366zM2.731 0A2.731 2.731 0 000 2.731v16.384a2.731 2.731 0 002.731 2.731h16.384a2.731 2.731 0 002.731-2.731V2.731A2.731 2.731 0 0019.115 0z" fill-rule="evenodd"/><path data-name="パス 15" d="M7.51 6.827h5.461a.683.683 0 010 1.365H9.158l5.662 5.661a.684.684 0 11-.967.967L8.192 9.158v3.813a.683.683 0 01-1.365 0V7.51a.683.683 0 01.683-.683z" fill-rule="evenodd"/></svg>