<svg xmlns="http://www.w3.org/2000/svg" width="21.846" height="21.846"><path data-name="パス 12" d="M19.115 1.365H2.731a1.365 1.365 0 00-1.366 1.366v16.384a1.365 1.365 0 001.366 1.365h16.384a1.365 1.365 0 001.365-1.365V2.731a1.365 1.365 0 00-1.365-1.366zM2.731 0A2.731 2.731 0 000 2.731v16.384a2.731 2.731 0 002.731 2.731h16.384a2.731 2.731 0 002.731-2.731V2.731A2.731 2.731 0 0019.115 0z" fill-rule="evenodd"/><path data-name="パス 13" d="M14.336 15.019H8.877a.683.683 0 010-1.365h3.813L7.028 7.993a.684.684 0 01.967-.967l5.66 5.662v-3.81a.683.683 0 011.365 0v5.461a.683.683 0 01-.684.68z" fill-rule="evenodd"/></svg>