<svg xmlns="http://www.w3.org/2000/svg" width="46.003" height="26.753"><path data-name="合体 1" d="M31.226 26.192a1.911 1.911 0 010-2.705l8.228-8.2H1.917A1.913 1.913 0 010 13.376a1.912 1.912 0 011.917-1.911h37.537l-8.23-8.2a1.909 1.909 0 01-.563-1.353 1.907 1.907 0 01.563-1.353 1.921 1.921 0 011.357-.561 1.918 1.918 0 011.357.561l11.5 11.463a1.911 1.911 0 01.564 1.353 1.908 1.908 0 01-.564 1.353l-11.5 11.463a1.913 1.913 0 01-1.356.561 1.917 1.917 0 01-1.356-.56z" fill="#e618e2" opacity=".698"/></svg>