<svg xmlns="http://www.w3.org/2000/svg" width="13.06" height="32.239" viewBox="0 0 13.06 32.239">
  <g id="ico_scrl_01" transform="translate(0)">
    <path id="パス_40" data-name="パス 40" d="M13.813,25.227,11.635,27.4l6.53,6.53,6.53-6.53-2.178-2.176L18.165,29.58l-4.352-4.354Z" transform="translate(-11.635 -1.694)" fill="#132efc"/>
    <path id="パス_41" data-name="パス 41" d="M22.516,10.992l2.178-2.176-6.53-6.53-6.529,6.53,2.178,2.176,4.351-4.352,4.352,4.352Z" transform="translate(-11.634 -2.287)" fill="#132efc"/>
    <path id="パス_42" data-name="パス 42" d="M18.116,13.5A4.616,4.616,0,1,1,13.5,18.116,4.616,4.616,0,0,1,18.116,13.5Zm0,3.078a1.539,1.539,0,1,1-1.539,1.539A1.539,1.539,0,0,1,18.116,16.578Z" transform="translate(-11.586 -1.997)" fill="#132efc" fill-rule="evenodd"/>
  </g>
</svg>
