<svg id="logo" xmlns="http://www.w3.org/2000/svg" width="109" height="109" viewBox="0 0 109 109">
  <g id="グループ_1" data-name="グループ 1" transform="translate(-270 -1227)">
    <g id="楕円形_1" data-name="楕円形 1" transform="translate(270 1227)" fill="none" stroke="#000" stroke-width="2">
      <circle cx="54.5" cy="54.5" r="54.5" stroke="none"/>
      <circle cx="54.5" cy="54.5" r="53.5" fill="none"/>
    </g>
    <line id="線_1" data-name="線 1" x1="32" y2="32" transform="translate(308.5 1265.5)" fill="none" stroke="#000" stroke-linecap="round" stroke-width="2"/>
  </g>
  <path id="S" d="M1.816,1.742A1.794,1.794,0,0,1,1.254.462,1.483,1.483,0,0,1,1.683-.655,1.181,1.181,0,0,1,2.4-1.07a11.642,11.642,0,0,1,2.207.837A8.9,8.9,0,0,0,8.129.6q3.318,0,3.332-2.334a2.519,2.519,0,0,0-1.139-2.193,20.717,20.717,0,0,0-3.543-1.6A11.109,11.109,0,0,1,2.822-7.811a4.533,4.533,0,0,1-1.216-3.311A5,5,0,0,1,5.4-16.3a9.092,9.092,0,0,1,2.84-.45h.492a9.291,9.291,0,0,1,3.691.78q1.821.78,1.821,1.835a2.13,2.13,0,0,1-.288,1.1.905.905,0,0,1-.822.492,21.4,21.4,0,0,1-2.179-.858,8.087,8.087,0,0,0-3.093-.492,3.027,3.027,0,0,0-1.968.661,1.925,1.925,0,0,0-.815,1.518,2.575,2.575,0,0,0,1.2,2.193A21.209,21.209,0,0,0,9.457-8.135a12.373,12.373,0,0,1,3.747,2,5.389,5.389,0,0,1,1.448,1.905,5.083,5.083,0,0,1,.366,1.891v.478a4.9,4.9,0,0,1-1.842,3.993,7.225,7.225,0,0,1-4.724,1.5,12.077,12.077,0,0,1-4.478-.661A6.829,6.829,0,0,1,1.816,1.742Z" transform="translate(26 46)"/>
  <path id="Y" d="M.762-15.5q0-.689,2.012-.689A2.274,2.274,0,0,1,4.63-15.2a26.474,26.474,0,0,1,1.561,2.356q1.027,1.681,1.547,2.722l.45.985a3.912,3.912,0,0,0,.478.872q.253,0,1.393-2t1.8-3.355A12.694,12.694,0,0,1,12.916-15.5a2.637,2.637,0,0,1,2.23-1.013q1.456,0,1.456.478,0,.563-2.645,5.543-.366.689-.746,1.365l-.38.675A37.762,37.762,0,0,0,10.595-4.1a12.49,12.49,0,0,0-.408,3.833L10.159.4v1A3.409,3.409,0,0,1,9.92,3.014q-.239.352-1.456.352T7.022,3.077a3.286,3.286,0,0,1-.225-1.6l.2-4.375a5.823,5.823,0,0,0-.647-2.687Q5.066-8.127,2.914-11.75T.762-15.5Z" transform="translate(65.141 80.512)"/>
</svg>
