<svg id="arrow-up-left-square" xmlns="http://www.w3.org/2000/svg" width="21.846" height="21.846" viewBox="0 0 21.846 21.846">
  <path id="パス_14" data-name="パス 14" d="M19.115,1.365H2.731A1.365,1.365,0,0,0,1.365,2.731V19.115A1.365,1.365,0,0,0,2.731,20.48H19.115a1.365,1.365,0,0,0,1.365-1.365V2.731A1.365,1.365,0,0,0,19.115,1.365ZM2.731,0A2.731,2.731,0,0,0,0,2.731V19.115a2.731,2.731,0,0,0,2.731,2.731H19.115a2.731,2.731,0,0,0,2.731-2.731V2.731A2.731,2.731,0,0,0,19.115,0Z" fill-rule="evenodd"/>
  <path id="パス_15" data-name="パス 15" d="M11.933,11.25h5.461a.683.683,0,0,1,0,1.365H13.581l5.662,5.661a.684.684,0,1,1-.967.967l-5.661-5.662v3.813a.683.683,0,0,1-1.365,0V11.933A.683.683,0,0,1,11.933,11.25Z" transform="translate(-4.423 -4.423)" fill-rule="evenodd"/>
</svg>
