<svg xmlns="http://www.w3.org/2000/svg" width="46.003" height="26.753" viewBox="0 0 46.003 26.753">
  <g id="arw_work_right_pink" transform="translate(14.5 -10.124)" opacity="0.698">
    <path id="合体_1" data-name="合体 1" d="M-417.791-544.807a1.911,1.911,0,0,1,0-2.705l8.228-8.2H-447.1a1.913,1.913,0,0,1-1.917-1.911,1.912,1.912,0,0,1,1.917-1.911h37.537l-8.23-8.2a1.909,1.909,0,0,1-.563-1.353,1.907,1.907,0,0,1,.563-1.353l0,0a1.921,1.921,0,0,1,1.357-.561,1.918,1.918,0,0,1,1.357.561l11.5,11.463a1.911,1.911,0,0,1,.564,1.353,1.908,1.908,0,0,1-.564,1.353l-11.5,11.463a1.913,1.913,0,0,1-1.356.561A1.917,1.917,0,0,1-417.791-544.807Z" transform="translate(434.517 581.123)" fill="#e618e2"/>
  </g>
</svg>
