<svg id="chevron-double-down_pink" xmlns="http://www.w3.org/2000/svg" width="22.074" height="16.709" viewBox="0 0 22.074 16.709">
  <path id="パス_1" data-name="パス 1" d="M3.623,14.873a.849.849,0,0,1,1.2,0L14.41,24.46,24,14.872a.85.85,0,1,1,1.2,1.2L15.012,26.261a.849.849,0,0,1-1.2,0L3.623,16.074a.849.849,0,0,1,0-1.2Z" transform="translate(-3.373 -9.801)" fill="#e618e2" fill-rule="evenodd"/>
  <path id="パス_2" data-name="パス 2" d="M3.623,5.873a.849.849,0,0,1,1.2,0L14.41,15.46,24,5.872a.85.85,0,1,1,1.2,1.2L15.012,17.261a.849.849,0,0,1-1.2,0L3.623,7.074a.849.849,0,0,1,0-1.2Z" transform="translate(-3.373 -5.623)" fill="#e618e2" fill-rule="evenodd"/>
</svg>
