<svg xmlns="http://www.w3.org/2000/svg" width="15.818" height="13.871" viewBox="0 0 15.818 13.871">
  <g id="chevron-double-up" transform="translate(0)">
    <path id="パス_5" data-name="パス 5" d="M10.851,5.83a.553.553,0,0,1,.861,0l7.3,8.42a.781.781,0,0,1,0,.994.554.554,0,0,1-.861,0L11.282,7.318,4.413,15.243a.554.554,0,0,1-.861,0,.781.781,0,0,1,0-.994l7.3-8.42Z" transform="translate(-3.373 -5.623)" fill-rule="evenodd"/>
    <path id="パス_6" data-name="パス 6" d="M10.851,14.83a.553.553,0,0,1,.861,0l7.3,8.42a.781.781,0,0,1,0,.994.554.554,0,0,1-.861,0l-6.869-7.925L4.413,24.243a.554.554,0,0,1-.861,0,.781.781,0,0,1,0-.994Z" transform="translate(-3.373 -10.578)" fill-rule="evenodd"/>
  </g>
</svg>
