<svg xmlns="http://www.w3.org/2000/svg" width="19.86" height="17.416" viewBox="0 0 19.86 17.416">
  <g id="chevron-double-up_pink" transform="translate(0 0)">
    <path id="パス_5" data-name="パス 5" d="M12.762,5.882a.694.694,0,0,1,1.081,0l9.165,10.572a.98.98,0,0,1,0,1.247.7.7,0,0,1-1.081,0L13.3,7.752,4.679,17.7a.7.7,0,0,1-1.081,0,.98.98,0,0,1,0-1.247L12.762,5.882Z" transform="translate(-3.373 -5.623)" fill="#e618e2" fill-rule="evenodd"/>
    <path id="パス_6" data-name="パス 6" d="M12.762,14.882a.694.694,0,0,1,1.081,0l9.165,10.572a.98.98,0,0,1,0,1.247.7.7,0,0,1-1.081,0L13.3,16.752,4.679,26.7a.7.7,0,0,1-1.081,0,.98.98,0,0,1,0-1.247Z" transform="translate(-3.373 -9.544)" fill="#e618e2" fill-rule="evenodd"/>
  </g>
</svg>
